<!-- Generated by IcoMoon.io -->
<svg version="1.1" xmlns="http://www.w3.org/2000/svg" width="1024" height="1024" viewBox="0 0 1024 1024">
<title></title>
<g id="icomoon-ignore">
</g>
<path d="M512 0c-282.752 0-512 229.248-512 512s229.248 512 512 512c282.752 0 512-229.248 512-512s-229.248-512-512-512zM572.331 512c0 0 133.928 133.933 140.501 140.499 16.685 16.685 16.685 43.693 0 60.333-16.685 16.685-43.693 16.685-60.333 0-6.566-6.528-140.499-140.501-140.499-140.501s-133.931 133.928-140.501 140.501c-16.683 16.685-43.691 16.685-60.331 0-16.683-16.685-16.683-43.693 0-60.333 6.528-6.566 140.501-140.499 140.501-140.499s-133.93-133.931-140.501-140.501c-16.683-16.683-16.683-43.691 0-60.331 16.683-16.683 43.691-16.683 60.331 0 6.57 6.528 140.501 140.501 140.501 140.501s133.933-133.93 140.499-140.501c16.685-16.683 43.693-16.683 60.333 0 16.685 16.683 16.685 43.691 0 60.331-6.528 6.57-140.501 140.501-140.501 140.501z"></path>
</svg>
